<?xml version="1.0" encoding="UTF-8" ?>
<!DOCTYPE svg PUBLIC "-//W3C//DTD SVG 1.1//EN" "http://www.w3.org/Graphics/SVG/1.1/DTD/svg11.dtd">
<svg width="966pt" height="960pt" viewBox="0 0 966 960" version="1.1" xmlns="http://www.w3.org/2000/svg">
<g id="#ffffffff">
<path fill="#ffffff" opacity="1.00" d=" M 410.13 15.35 C 470.22 7.11 532.03 10.52 590.66 26.17 C 578.89 28.84 566.24 28.63 555.18 23.42 C 557.10 33.48 558.71 43.64 558.76 53.90 C 550.44 54.07 542.22 52.72 533.97 51.96 C 529.21 51.53 524.73 49.75 520.50 47.64 C 522.11 53.34 524.38 59.03 524.25 65.05 C 523.75 70.44 521.05 75.26 518.73 80.05 C 530.75 73.74 544.65 74.42 557.79 73.57 C 558.04 80.08 556.68 86.48 555.35 92.81 C 553.09 102.69 548.31 111.72 543.69 120.67 C 536.08 134.30 527.75 147.67 517.22 159.28 C 498.31 180.99 476.51 199.91 454.49 218.39 C 416.45 249.54 376.55 278.37 335.78 305.83 C 288.95 337.70 240.19 366.68 190.20 393.29 C 137.11 421.68 82.66 447.51 27.21 470.94 C 21.56 473.54 15.58 475.42 10.13 478.46 C 9.15 404.49 26.79 330.43 60.27 264.51 C 90.97 203.97 135.24 150.45 188.76 108.73 C 252.68 58.92 329.83 26.30 410.13 15.35 Z" />
<path fill="#ffffff" opacity="1.00" d=" M 595.90 27.46 C 676.80 49.47 751.47 94.00 809.11 154.90 C 819.83 165.92 829.76 177.68 839.27 189.76 C 884.04 247.27 915.02 315.44 928.68 387.04 L 928.05 386.71 C 908.75 377.17 889.39 367.75 870.26 357.87 C 836.39 340.59 803.23 321.91 770.80 302.05 C 734.77 279.72 699.01 256.64 666.53 229.30 C 643.62 209.90 622.11 188.02 607.52 161.55 C 597.63 143.91 591.55 124.21 589.51 104.11 C 588.67 94.00 587.92 83.79 589.36 73.69 C 598.62 74.19 607.89 74.81 617.07 76.18 C 621.58 76.81 625.72 78.82 629.86 80.62 C 628.33 75.81 626.04 71.19 625.29 66.15 C 624.56 60.31 627.50 54.97 629.87 49.86 C 617.28 53.28 604.08 54.02 591.08 53.83 C 592.32 44.98 594.07 36.21 595.90 27.46 Z" />
<path fill="#ffffff" opacity="1.00" d=" M 549.90 195.84 C 552.66 193.43 554.59 189.79 557.99 188.27 C 562.05 191.08 565.54 194.63 569.45 197.66 C 600.00 222.75 631.62 246.51 664.26 268.81 C 680.90 279.92 697.56 291.02 714.95 300.92 C 765.33 329.50 818.32 353.34 872.56 373.59 C 891.30 380.07 910.05 386.80 929.49 390.89 C 939.97 449.04 939.56 509.18 927.66 567.09 C 913.55 636.83 882.95 703.11 839.27 759.25 C 815.69 789.42 788.42 816.70 758.25 840.27 C 723.18 867.48 684.26 889.75 642.92 905.93 C 591.46 926.17 536.33 937.08 481.04 937.93 C 412.84 939.11 344.44 924.93 282.33 896.74 C 214.10 866.00 153.72 818.26 107.73 759.25 C 100.04 749.37 92.88 739.09 85.82 728.77 C 85.78 728.27 85.69 727.27 85.65 726.77 C 93.06 727.70 100.26 723.28 103.79 716.91 C 108.68 708.20 109.98 698.11 111.34 688.37 C 117.34 688.50 123.34 688.45 129.34 688.42 C 131.98 692.00 134.62 695.59 137.04 699.33 C 138.30 677.52 146.41 656.81 155.74 637.31 C 162.11 623.63 170.36 610.83 180.45 599.59 C 198.10 579.38 220.48 563.90 243.78 550.89 C 222.86 556.61 201.91 563.66 180.04 564.32 C 148.60 566.06 117.43 548.03 102.16 520.68 C 96.61 510.70 92.19 500.08 88.92 489.14 C 88.68 489.33 88.19 489.72 87.94 489.92 C 83.87 509.34 83.69 529.28 84.54 549.02 C 84.91 554.03 85.50 559.02 86.11 564.01 C 87.37 574.92 90.88 585.39 93.88 595.91 C 94.48 597.89 94.62 599.97 94.75 602.03 C 94.81 601.16 94.87 600.30 94.94 599.44 C 101.53 621.79 109.38 643.74 117.02 665.74 C 115.08 665.78 113.15 665.81 111.22 665.85 C 109.98 656.59 108.94 646.99 104.38 638.67 C 101.57 633.47 96.01 630.54 90.58 628.81 C 86.40 628.00 81.62 627.69 77.88 630.11 C 72.97 633.05 69.76 638.13 67.61 643.31 C 62.09 657.23 61.22 672.50 62.10 687.30 L 62.18 688.20 C 28.58 623.72 10.69 551.25 9.93 478.57 C 60.39 469.55 109.40 453.71 157.14 435.26 C 206.66 415.87 254.88 393.35 302.37 369.47 C 323.98 358.60 345.59 347.72 366.54 335.62 C 433.19 296.96 495.13 250.06 549.90 195.84 M 511.48 304.54 L 511.55 305.36 C 509.99 305.70 508.19 305.35 506.98 306.39 C 506.60 306.33 505.85 306.20 505.47 306.14 L 505.45 307.24 C 504.29 307.50 503.15 307.77 502.01 308.05 C 499.95 309.14 497.72 309.85 495.54 310.65 L 495.48 311.32 C 494.29 311.73 493.11 312.17 491.95 312.63 C 490.89 313.34 489.89 314.12 488.87 314.87 C 486.70 316.78 483.70 317.73 482.13 320.26 C 481.79 320.31 481.11 320.40 480.77 320.44 C 480.59 321.93 479.43 322.54 478.15 322.98 C 476.77 324.78 475.55 326.71 474.03 328.41 C 473.78 328.45 473.27 328.53 473.02 328.57 C 471.53 330.12 471.23 331.54 470.19 333.19 C 468.16 336.05 466.37 339.08 464.75 342.19 C 464.00 343.91 463.60 345.96 461.93 347.06 C 461.69 348.79 461.39 350.52 460.66 352.13 C 460.55 352.60 460.33 353.53 460.22 353.99 C 459.68 355.60 459.43 357.31 459.02 358.99 C 458.61 360.99 458.25 362.99 458.08 365.02 C 457.21 370.90 457.10 377.04 458.19 382.89 C 458.40 385.24 458.50 387.62 459.20 389.89 C 459.76 391.96 460.54 393.96 461.18 396.00 C 461.57 396.92 461.88 397.87 462.11 398.85 C 463.80 403.02 465.79 407.07 468.29 410.82 C 468.59 412.14 468.89 413.58 470.50 413.86 C 470.54 414.16 470.62 414.78 470.66 415.09 C 473.27 417.59 475.24 420.68 477.96 423.09 C 479.22 424.21 480.28 425.54 481.23 426.95 C 482.30 427.46 483.39 428.00 484.08 429.04 C 485.21 429.55 486.44 430.00 486.89 431.31 C 488.05 431.76 489.23 432.20 490.43 432.63 L 490.46 433.62 L 491.77 433.67 C 491.75 434.03 491.71 434.75 491.69 435.12 C 493.62 435.41 495.81 435.46 497.00 437.30 C 497.96 437.55 498.93 437.82 499.91 438.08 C 501.58 438.82 503.24 439.58 504.91 440.34 C 505.57 440.37 506.89 440.43 507.55 440.46 L 507.45 441.38 C 510.28 441.92 513.13 442.34 515.98 442.81 C 526.67 445.68 537.83 443.35 548.51 441.40 L 548.47 440.65 C 550.22 440.30 551.97 439.91 553.73 439.55 L 553.34 438.53 C 554.02 438.48 555.38 438.37 556.06 438.31 C 557.05 438.01 558.03 437.64 558.98 437.21 C 560.28 435.55 562.38 435.42 564.31 435.10 C 564.29 434.74 564.25 434.02 564.23 433.66 L 565.55 433.63 L 565.63 432.82 C 567.77 431.56 570.01 430.48 572.01 428.98 C 572.81 427.79 574.14 427.15 574.99 426.00 C 576.45 425.16 577.61 424.09 578.92 423.08 C 579.96 421.13 581.58 419.55 582.81 417.72 L 583.35 417.56 C 585.86 414.14 587.75 410.30 590.52 407.08 C 590.44 406.73 590.27 406.04 590.19 405.69 L 591.22 405.47 C 592.13 402.08 594.33 399.15 594.77 395.62 L 595.34 395.48 C 595.75 393.16 596.26 390.86 596.66 388.54 L 597.36 388.43 C 597.45 386.26 597.62 384.09 597.87 381.94 C 599.08 374.65 598.49 367.17 597.30 359.91 C 596.75 355.49 594.44 351.51 594.06 347.05 C 592.28 345.66 591.70 343.37 590.88 341.38 C 590.57 340.92 589.97 339.99 589.67 339.52 C 589.34 338.19 589.13 336.72 587.84 335.96 C 585.97 333.84 584.69 331.25 582.86 329.09 C 580.49 325.97 577.16 323.72 575.02 320.40 C 574.63 320.42 573.85 320.45 573.46 320.47 C 573.43 320.11 573.36 319.38 573.33 319.01 C 569.32 316.17 565.15 313.22 560.57 311.26 L 560.51 310.38 C 559.84 310.36 558.50 310.32 557.83 310.31 C 557.66 309.92 557.32 309.16 557.15 308.78 C 555.60 308.43 553.64 308.62 552.95 306.88 C 550.13 306.31 547.29 305.85 544.47 305.33 L 544.51 304.55 C 533.58 302.91 522.41 302.94 511.48 304.54 M 744.96 354.89 C 741.58 358.31 738.55 362.13 734.66 364.99 C 734.63 365.35 734.57 366.08 734.55 366.45 C 734.04 366.47 733.04 366.51 732.54 366.53 C 732.56 366.99 732.58 367.92 732.60 368.38 C 732.21 368.45 731.44 368.58 731.06 368.65 C 729.54 370.60 727.94 372.50 725.94 373.98 C 724.75 375.42 722.91 375.21 722.13 377.11 C 720.02 380.33 716.52 382.10 713.98 384.89 C 712.85 386.22 710.88 386.65 710.21 388.38 C 709.90 388.44 709.29 388.55 708.99 388.61 C 708.65 390.05 707.39 390.52 706.13 390.88 C 704.61 392.56 703.23 394.52 700.85 395.03 C 700.70 395.60 700.41 396.73 700.26 397.30 C 699.69 397.42 698.56 397.67 697.99 397.80 C 695.94 400.80 692.57 402.40 690.01 404.87 C 688.92 405.41 688.00 406.22 687.16 407.07 C 685.58 407.73 684.46 409.06 683.04 409.96 C 681.77 411.27 679.71 411.15 679.09 413.12 C 678.33 414.29 676.96 414.51 675.73 414.85 C 675.71 415.23 675.67 415.98 675.65 416.36 C 675.24 416.42 674.43 416.52 674.02 416.57 C 672.42 418.09 670.80 419.58 668.98 420.83 C 667.80 421.71 666.52 422.43 665.14 422.94 C 664.45 424.25 663.02 424.53 661.73 424.95 C 661.72 425.25 661.70 425.85 661.69 426.15 C 659.66 427.33 657.31 428.25 655.94 430.26 C 655.55 430.28 654.77 430.32 654.37 430.34 L 654.59 431.24 C 653.40 431.84 652.32 432.60 651.16 433.22 C 649.21 434.63 647.20 435.96 645.18 437.26 C 643.14 438.54 641.16 439.91 639.23 441.33 C 638.16 441.82 637.11 442.32 636.07 442.84 C 635.33 443.92 634.10 444.36 632.99 444.91 C 632.38 446.14 631.04 446.30 629.92 446.74 C 629.43 447.98 628.08 448.25 627.06 448.85 C 625.25 450.99 621.22 449.62 620.40 452.59 C 619.96 452.61 619.07 452.65 618.63 452.67 C 618.64 453.09 618.67 453.94 618.68 454.37 C 617.52 454.50 616.37 454.65 615.23 454.81 C 614.50 457.28 610.92 455.89 610.36 458.48 C 610.02 458.54 609.34 458.64 609.00 458.70 C 608.19 461.46 604.24 459.62 603.17 462.22 C 601.76 462.65 600.11 462.68 599.27 464.10 C 597.82 464.66 595.84 464.56 595.28 466.38 C 594.70 466.47 593.55 466.65 592.98 466.74 C 592.14 469.94 587.43 467.25 586.37 470.25 C 582.78 470.51 580.63 473.79 577.12 474.22 C 575.46 474.78 573.21 474.32 572.22 476.11 C 569.62 477.43 566.74 478.01 563.98 478.88 C 562.15 479.69 560.21 480.14 558.25 480.41 L 558.52 481.29 C 554.32 481.65 550.08 482.10 546.04 483.23 C 535.27 484.04 524.51 482.89 513.89 481.17 C 510.23 479.92 506.36 479.50 502.52 479.33 L 502.67 478.50 C 500.39 478.15 498.17 477.55 496.04 476.71 C 493.66 476.22 491.30 475.70 489.07 474.74 C 487.26 474.12 485.41 473.64 483.53 473.29 L 483.49 472.47 C 482.12 472.35 480.76 472.24 479.41 472.13 C 479.42 471.79 479.44 471.10 479.45 470.76 C 477.10 470.41 474.77 469.94 472.46 469.41 L 472.48 468.46 C 470.83 468.10 469.18 467.71 467.53 467.36 L 467.46 466.75 C 464.09 465.68 460.99 463.80 457.44 463.34 L 457.61 462.55 C 456.24 462.20 454.88 461.83 453.53 461.49 L 453.54 460.54 C 451.75 460.10 449.97 459.64 448.19 459.21 C 447.94 458.83 447.45 458.08 447.21 457.70 C 445.96 457.58 444.72 457.46 443.48 457.36 C 443.52 456.97 443.60 456.20 443.64 455.81 C 442.84 455.73 441.25 455.57 440.45 455.49 L 440.54 454.67 C 438.16 454.17 436.26 452.81 434.70 451.01 C 431.11 450.59 428.08 448.58 425.00 446.87 C 423.86 446.40 422.59 446.06 421.94 444.92 C 419.79 443.24 416.85 442.88 414.93 440.89 C 413.72 440.48 412.42 440.17 411.98 438.84 C 410.50 438.35 408.31 438.69 408.05 436.64 C 407.71 436.62 407.03 436.57 406.69 436.55 C 406.42 435.52 405.80 434.93 404.85 434.76 C 402.12 434.24 400.16 432.10 397.57 431.24 L 397.51 430.70 C 395.57 430.00 394.02 428.74 392.80 427.10 C 390.28 425.61 387.71 424.14 385.01 422.95 C 384.08 422.19 383.17 421.41 382.11 420.86 C 381.02 419.20 379.18 418.35 377.80 417.00 C 376.50 416.26 374.15 416.53 374.14 414.45 C 373.72 414.49 372.88 414.55 372.46 414.58 C 372.40 414.20 372.28 413.43 372.23 413.05 C 370.48 411.18 367.68 410.80 365.93 408.94 C 365.64 408.75 365.04 408.38 364.75 408.20 C 365.18 406.07 362.56 407.75 362.11 405.90 C 360.94 404.93 359.65 404.11 358.41 403.25 C 358.38 402.96 358.33 402.39 358.30 402.11 C 356.66 401.21 355.07 400.23 353.42 399.38 L 353.54 398.71 C 352.31 398.39 351.53 397.61 351.21 396.37 L 350.03 396.55 C 350.12 396.04 350.32 395.02 350.41 394.51 C 349.92 394.63 348.94 394.86 348.45 394.98 C 348.40 394.60 348.29 393.84 348.23 393.46 C 347.55 393.75 346.88 394.04 346.21 394.33 L 347.64 394.21 C 348.03 395.80 348.37 397.43 348.90 399.00 C 349.28 400.29 349.72 401.56 349.98 402.90 C 351.72 404.17 352.04 406.40 352.62 408.33 L 353.30 408.53 C 353.75 410.16 354.25 411.79 354.70 413.43 L 355.65 413.65 C 355.62 414.00 355.57 414.72 355.54 415.08 C 356.90 417.38 358.09 419.80 358.75 422.44 L 359.26 422.37 C 359.66 424.02 360.39 425.56 361.35 426.97 C 361.41 427.60 361.52 428.86 361.58 429.48 L 362.33 429.55 C 362.62 430.21 363.21 431.53 363.50 432.19 C 363.47 432.53 363.41 433.22 363.38 433.56 L 364.23 433.53 C 365.62 437.90 368.03 441.83 369.76 446.07 C 371.03 448.40 372.00 450.88 372.81 453.42 L 373.79 453.59 C 373.69 454.05 373.51 454.98 373.42 455.44 L 374.80 455.76 C 374.68 456.20 374.46 457.09 374.34 457.53 L 375.41 457.60 C 375.80 458.91 376.22 460.21 376.62 461.53 L 377.70 461.61 C 377.65 461.98 377.55 462.70 377.49 463.07 C 378.16 464.71 379.34 466.09 379.96 467.77 C 381.38 471.60 383.66 475.06 384.98 478.93 C 386.92 481.73 387.95 485.04 389.46 488.04 C 389.48 488.38 389.52 489.06 389.54 489.39 L 390.33 489.67 C 391.31 491.77 392.21 493.92 393.32 495.97 C 394.19 498.02 395.17 500.03 396.13 502.06 C 397.09 504.08 398.12 506.08 399.16 508.08 C 399.84 509.62 400.58 511.13 401.31 512.66 C 401.81 513.94 402.37 515.21 402.97 516.46 C 403.69 517.66 404.30 518.92 404.79 520.24 L 405.35 520.40 C 405.85 521.59 406.37 522.79 406.82 524.01 C 407.18 525.03 407.63 526.01 407.97 527.06 C 408.28 527.45 408.89 528.24 409.20 528.63 C 409.85 530.51 410.90 532.22 411.78 534.01 C 412.64 535.54 412.57 537.50 412.98 539.25 C 413.33 539.26 414.01 539.28 414.36 539.29 C 414.22 540.85 414.82 541.60 416.16 541.54 C 415.94 542.01 415.49 542.93 415.26 543.40 C 412.11 545.89 409.23 548.72 406.06 551.18 C 404.76 552.22 403.45 553.25 402.15 554.29 C 400.96 555.18 399.71 555.97 398.48 556.79 L 398.40 557.27 C 389.53 563.02 380.60 568.81 370.90 573.09 C 367.71 574.68 364.33 575.87 360.90 576.85 C 358.97 577.65 356.93 578.17 354.90 578.68 C 345.87 581.59 336.49 583.61 327.03 584.53 C 317.80 586.50 308.32 585.63 298.96 585.80 C 294.95 585.57 290.77 586.24 286.94 584.84 C 278.20 584.13 269.44 583.15 260.99 580.81 C 257.98 580.18 254.87 579.95 252.01 578.78 C 250.00 578.23 247.95 577.81 245.92 577.34 C 243.51 575.84 240.48 576.17 238.02 574.80 C 236.02 574.20 234.00 573.64 231.98 573.12 C 231.01 572.93 230.13 572.54 229.34 571.97 C 229.42 572.98 229.51 573.99 229.61 575.02 C 234.93 583.47 239.32 592.50 245.16 600.61 C 252.74 613.93 262.04 626.18 270.10 639.19 C 270.42 639.48 271.06 640.06 271.38 640.35 C 276.80 649.03 283.21 657.04 288.78 665.63 C 289.11 665.90 289.76 666.46 290.09 666.73 C 294.50 673.39 299.74 679.45 304.93 685.50 C 305.23 685.81 305.82 686.43 306.12 686.74 C 308.51 689.39 310.85 692.08 313.15 694.82 C 317.52 699.61 321.84 704.46 325.96 709.47 C 327.40 711.19 328.88 712.89 330.24 714.69 C 339.83 726.62 348.35 739.51 354.72 753.46 C 356.56 757.47 357.84 761.73 359.70 765.75 C 360.09 765.73 360.85 765.68 361.24 765.66 C 366.63 754.30 369.43 741.98 372.72 729.92 C 375.32 719.47 378.13 709.08 380.72 698.64 C 384.06 686.39 387.17 674.07 391.03 661.97 C 395.05 648.89 399.36 635.86 405.06 623.41 C 410.27 610.70 416.73 598.55 422.14 585.92 C 424.51 580.75 427.21 575.71 429.10 570.33 C 429.40 570.37 430.02 570.46 430.32 570.50 C 430.62 573.27 431.84 575.81 432.84 578.38 L 433.79 578.48 C 433.67 578.96 433.42 579.91 433.29 580.39 L 434.65 580.53 C 434.62 580.86 434.56 581.52 434.54 581.85 C 435.09 583.64 435.66 585.62 437.11 586.94 C 437.48 587.93 437.87 588.92 438.26 589.93 C 439.92 594.15 442.29 598.07 443.81 602.37 L 444.68 602.55 C 444.58 603.01 444.37 603.92 444.26 604.37 L 445.49 604.45 C 445.54 605.10 445.64 606.41 445.69 607.06 C 446.02 607.62 446.67 608.74 447.00 609.30 C 447.88 609.56 448.74 609.87 449.58 610.26 C 449.30 611.17 448.88 612.04 448.33 612.87 C 448.70 613.52 449.42 614.81 449.79 615.46 L 450.20 615.63 C 451.28 618.46 452.43 621.27 453.72 624.01 C 455.19 627.13 456.68 630.24 457.84 633.49 L 458.76 633.57 C 458.64 634.04 458.39 634.99 458.26 635.47 L 459.66 635.58 C 459.62 635.96 459.54 636.71 459.51 637.08 C 460.67 639.26 461.80 641.66 462.84 644.04 C 463.71 646.43 465.00 648.63 466.14 650.91 C 466.92 652.64 467.45 654.52 468.50 656.08 C 468.48 656.43 468.44 657.14 468.42 657.50 L 469.24 657.66 C 470.27 660.64 471.83 663.42 472.76 666.45 L 473.80 666.42 C 473.65 666.90 473.35 667.86 473.20 668.34 L 474.44 668.46 C 474.51 669.08 474.66 670.34 474.73 670.97 C 476.41 672.75 477.09 675.12 477.77 677.41 L 478.29 677.68 C 479.67 681.59 481.58 685.28 483.47 688.96 C 483.41 689.33 483.29 690.07 483.22 690.44 L 484.50 690.46 C 484.53 691.11 484.59 692.43 484.62 693.09 C 486.63 693.62 486.42 695.78 486.89 697.42 C 487.65 698.69 488.31 700.03 488.80 701.45 L 489.24 701.65 C 489.77 703.04 490.31 704.44 490.83 705.86 C 492.99 710.22 494.83 714.74 496.88 719.17 C 497.66 720.54 498.25 722.00 498.80 723.49 L 499.66 723.60 C 499.62 723.98 499.53 724.73 499.49 725.10 C 500.42 726.92 501.36 728.77 502.36 730.58 C 502.45 730.93 502.65 731.65 502.75 732.00 C 503.03 733.10 503.45 734.17 503.99 735.20 C 504.36 735.57 505.11 736.32 505.48 736.69 C 505.50 737.39 505.52 738.79 505.54 739.48 L 506.77 739.55 C 506.68 740.01 506.48 740.93 506.38 741.39 L 507.30 741.69 C 509.22 746.78 511.76 751.62 514.00 756.59 C 515.56 760.01 517.49 763.25 518.99 766.71 C 520.82 769.44 522.76 772.24 522.91 775.66 C 523.37 775.40 524.27 774.86 524.72 774.59 L 524.33 776.63 L 525.81 776.31 C 525.72 777.11 525.55 778.72 525.47 779.52 C 526.05 779.47 527.21 779.36 527.79 779.31 C 527.68 780.16 527.46 781.87 527.35 782.72 L 529.01 782.19 C 528.81 782.77 528.41 783.95 528.21 784.54 L 529.80 784.32 C 529.69 785.16 529.47 786.82 529.35 787.65 L 530.79 787.24 C 530.68 788.10 530.48 789.83 530.38 790.70 L 532.26 790.32 C 531.98 790.91 531.40 792.09 531.12 792.68 L 532.58 792.12 C 532.55 794.00 532.72 795.91 533.34 797.71 C 533.30 796.83 533.23 795.05 533.19 794.17 L 534.65 794.69 L 534.31 793.10 L 535.91 793.60 C 535.71 793.07 535.31 792.03 535.11 791.50 L 536.64 791.48 C 536.52 791.01 536.29 790.06 536.18 789.59 L 537.19 789.46 C 537.55 788.32 537.87 787.18 538.13 786.04 C 538.55 785.33 538.97 784.63 539.39 783.93 C 539.73 782.46 540.26 781.05 540.72 779.62 L 541.24 779.50 C 542.36 775.38 544.10 771.47 545.86 767.60 C 546.72 765.05 547.53 762.49 548.73 760.08 C 549.46 758.32 550.11 756.53 550.78 754.75 C 552.37 751.21 553.75 747.58 555.22 743.99 C 556.99 739.29 558.91 734.65 560.80 730.00 C 562.44 725.85 564.23 721.77 565.71 717.56 L 566.40 717.47 C 566.46 716.53 566.53 715.59 566.61 714.67 C 569.60 709.06 571.48 702.94 574.21 697.20 C 575.27 694.29 576.51 691.44 577.60 688.54 C 579.31 684.36 581.25 680.26 582.79 676.01 C 584.63 671.68 586.17 667.21 588.45 663.08 C 588.39 662.69 588.29 661.92 588.23 661.53 L 589.24 661.48 C 589.46 660.25 589.94 659.10 590.19 657.88 C 591.74 655.16 592.75 652.18 594.17 649.39 C 594.39 648.44 594.62 647.49 594.87 646.55 C 598.04 640.53 600.20 634.03 603.05 627.85 C 603.80 626.32 604.48 624.76 605.14 623.19 C 606.72 619.35 608.50 615.58 609.75 611.62 L 610.19 611.48 C 611.19 609.20 611.79 606.77 612.85 604.52 L 613.74 604.36 C 613.60 603.89 613.31 602.93 613.16 602.46 L 614.50 602.50 C 614.54 601.86 614.62 600.57 614.66 599.93 C 616.50 599.52 616.31 597.54 616.74 596.13 C 617.53 594.47 618.34 592.82 619.13 591.16 C 619.77 589.39 620.47 587.65 621.22 585.94 C 622.62 583.10 623.92 580.21 625.15 577.30 C 625.81 575.85 626.50 574.42 627.18 572.99 C 627.68 571.49 628.18 570.01 628.73 568.54 L 629.65 568.38 C 629.64 568.03 629.61 567.33 629.60 566.98 C 631.51 563.89 632.80 560.50 634.26 557.19 C 635.29 555.42 636.04 553.53 636.81 551.64 L 637.67 551.49 C 637.59 551.03 637.43 550.12 637.35 549.66 L 638.68 549.47 C 638.59 549.00 638.41 548.08 638.32 547.61 L 639.24 547.45 C 640.37 545.64 640.63 543.45 641.80 541.66 L 642.19 541.42 C 644.87 536.64 646.77 531.32 650.11 526.98 C 650.31 525.93 650.66 524.93 651.17 523.98 C 651.75 522.87 652.62 521.95 653.33 520.93 C 653.32 520.58 653.29 519.89 653.27 519.55 L 654.71 519.53 C 654.58 519.05 654.32 518.10 654.19 517.63 L 655.30 517.60 C 657.38 512.84 660.22 508.43 662.80 503.95 C 664.07 503.20 664.32 501.71 664.84 500.46 C 665.55 499.26 666.20 498.02 666.97 496.86 C 667.97 495.25 668.86 493.58 669.96 492.05 C 672.30 488.78 674.08 485.14 676.18 481.71 C 677.03 479.79 678.33 478.20 679.95 476.86 C 680.31 475.74 680.67 474.62 681.05 473.51 C 682.93 471.12 684.59 468.56 686.22 465.99 C 687.07 464.66 687.90 463.33 688.75 462.00 C 689.82 460.32 690.83 458.60 692.08 457.04 C 692.56 455.95 693.04 454.82 693.99 454.04 C 694.97 453.17 695.45 451.99 695.77 450.75 C 696.55 449.68 697.35 448.62 698.15 447.56 C 699.38 445.37 700.65 443.20 702.20 441.23 C 703.98 438.31 705.98 435.53 707.66 432.56 C 708.32 431.21 708.92 429.74 710.40 429.09 C 710.41 428.79 710.43 428.19 710.44 427.89 C 712.11 427.66 712.36 426.13 712.72 424.81 C 715.02 421.68 716.79 418.21 719.19 415.15 C 719.38 414.66 719.75 413.68 719.94 413.19 C 720.74 412.10 721.38 410.90 721.86 409.63 C 722.16 409.60 722.75 409.53 723.05 409.49 C 726.08 402.30 730.58 395.81 734.42 389.02 C 734.48 388.78 734.58 388.31 734.63 388.07 C 735.20 386.30 736.77 385.06 737.17 383.21 C 738.67 380.82 739.71 378.21 740.70 375.58 L 741.69 375.52 C 741.57 375.04 741.32 374.07 741.19 373.58 L 742.24 373.45 C 742.49 372.27 743.00 371.15 743.14 369.95 C 744.83 366.81 745.66 363.31 746.81 359.95 C 748.00 356.78 748.41 353.43 748.49 350.06 C 747.70 351.94 746.61 353.67 744.96 354.89 M 866.00 401.93 C 864.19 410.37 861.56 418.63 858.81 426.80 C 857.58 430.20 856.49 433.65 854.83 436.87 C 854.67 437.42 854.35 438.51 854.20 439.06 C 853.14 440.62 852.60 442.49 851.44 443.94 C 851.52 444.34 851.68 445.12 851.76 445.52 L 850.53 445.55 C 850.50 446.14 850.44 447.32 850.41 447.92 C 848.23 449.12 848.12 451.86 847.02 453.86 C 845.22 457.32 843.18 460.68 841.03 463.93 C 840.14 464.81 839.64 465.95 839.25 467.12 C 835.33 472.35 832.17 478.21 827.58 482.90 C 827.49 483.15 827.33 483.64 827.25 483.88 C 825.25 485.44 823.72 487.47 822.25 489.50 C 821.91 489.82 821.23 490.45 820.89 490.77 C 818.76 493.01 816.61 495.24 814.25 497.24 C 806.62 503.84 798.84 510.56 789.58 514.75 L 789.49 515.27 C 787.93 515.74 786.47 516.42 785.12 517.31 C 783.59 517.81 782.07 518.28 780.54 518.72 L 780.44 519.33 C 777.14 520.52 773.89 521.82 770.52 522.76 L 770.48 523.40 C 768.25 523.73 766.13 524.47 764.00 525.13 C 759.71 526.64 755.28 527.67 750.97 529.08 C 741.96 531.27 732.97 533.58 723.78 534.91 C 703.48 538.92 682.73 539.23 662.12 538.53 C 667.78 541.75 672.41 546.52 677.10 550.93 C 686.20 558.58 693.68 567.84 701.54 576.71 C 701.64 577.28 701.85 578.42 701.95 578.99 C 702.44 579.17 703.43 579.54 703.92 579.73 C 708.65 586.38 713.42 593.00 717.84 599.87 C 724.08 609.60 729.43 619.99 735.06 629.98 C 743.84 645.23 752.96 660.29 761.84 675.50 C 766.13 682.29 769.78 689.55 774.25 696.18 C 774.37 696.61 774.60 697.48 774.72 697.92 C 775.90 698.59 776.34 699.86 776.86 701.05 C 781.16 708.23 784.96 715.69 789.17 722.93 C 792.25 728.55 795.09 734.30 798.18 739.92 C 799.06 741.68 799.95 743.44 800.84 745.22 C 801.86 747.17 802.90 749.12 803.98 751.07 C 804.31 751.96 804.67 752.89 805.00 753.82 C 805.34 753.12 806.02 751.71 806.36 751.01 C 806.42 750.76 806.53 750.25 806.58 750.00 C 809.67 742.91 812.07 735.47 813.86 727.95 C 814.17 726.88 814.48 725.82 814.81 724.77 C 820.41 703.34 824.68 681.58 828.81 659.82 C 830.10 653.28 831.53 646.75 832.38 640.13 C 832.56 640.19 832.93 640.30 833.11 640.35 C 833.13 635.34 834.48 630.50 835.32 625.60 C 837.22 615.72 838.93 605.81 840.96 595.96 C 847.30 562.85 857.59 530.53 862.08 497.06 C 865.02 482.86 866.24 468.37 867.53 453.95 C 869.01 436.62 868.56 419.14 866.00 401.93 M 745.09 410.40 C 741.67 411.75 738.25 413.12 735.17 415.18 C 727.40 420.00 721.66 427.70 717.74 435.86 C 712.82 447.59 712.77 461.30 718.14 472.88 C 719.08 474.66 719.93 476.49 720.74 478.34 L 721.25 478.50 C 723.36 482.17 726.02 485.55 729.39 488.15 C 729.47 488.37 729.62 488.82 729.70 489.04 C 734.33 492.03 738.75 495.34 743.95 497.35 C 745.96 497.87 747.98 498.41 750.00 498.96 C 756.68 500.95 763.67 500.07 770.48 499.42 L 770.53 498.70 C 779.51 497.58 787.46 492.19 793.87 486.07 C 806.06 473.16 810.09 453.28 803.31 436.78 C 802.63 435.33 801.96 433.90 801.33 432.44 C 799.11 428.24 796.05 424.58 792.98 421.03 C 791.98 420.33 791.05 419.56 790.02 418.93 C 786.60 415.31 781.99 413.05 777.50 411.06 C 772.77 409.65 768.00 407.58 762.98 408.02 C 756.98 408.35 750.60 407.53 745.09 410.40 M 307.93 481.10 C 295.32 486.62 285.23 498.35 283.08 512.11 C 281.02 523.93 285.13 536.21 292.87 545.22 C 294.83 547.20 297.00 548.96 299.10 550.81 C 300.33 551.57 301.51 552.43 302.61 553.40 C 308.04 556.31 313.84 558.25 319.90 559.34 C 324.28 559.72 328.69 559.73 333.06 559.23 C 338.69 557.90 344.25 556.18 349.33 553.34 C 355.86 549.28 360.92 543.40 365.01 536.97 C 367.30 531.58 369.13 525.89 369.38 520.00 C 369.79 511.81 367.10 503.82 363.14 496.76 C 362.84 496.47 362.23 495.91 361.93 495.63 C 358.29 490.53 353.58 486.05 347.98 483.17 C 346.63 482.56 345.36 481.79 344.06 481.10 C 335.88 477.15 326.69 477.35 317.85 477.98 C 314.46 478.71 311.18 479.89 307.93 481.10 M 139.85 485.55 C 135.81 487.38 132.28 490.08 129.07 493.10 C 126.88 495.78 125.15 498.78 123.66 501.90 C 120.91 509.46 121.23 517.96 124.60 525.27 C 126.67 528.80 129.16 532.07 132.22 534.81 C 134.62 536.50 137.12 538.06 139.80 539.29 C 145.14 541.68 150.98 541.00 156.64 540.52 C 161.21 539.90 165.18 537.40 168.94 534.91 C 172.47 531.64 175.42 527.75 177.37 523.34 C 177.90 521.52 178.48 519.71 179.07 517.92 C 180.76 507.68 176.99 496.60 168.78 490.10 C 167.20 489.01 165.64 487.91 164.08 486.81 C 156.62 483.12 147.66 482.74 139.85 485.55 M 194.69 600.52 C 189.62 606.27 185.25 612.60 180.79 618.83 C 176.65 625.06 172.75 631.45 169.10 637.99 C 168.10 639.99 167.06 641.98 166.18 644.04 C 161.82 653.94 158.93 664.48 157.12 675.13 C 156.28 679.54 155.58 683.98 155.30 688.47 C 161.36 688.42 167.41 688.45 173.47 688.45 C 173.97 694.70 175.24 700.86 175.98 707.08 C 176.66 712.42 177.47 717.76 179.11 722.91 C 179.89 724.15 180.50 725.50 181.11 726.84 C 185.28 734.29 193.26 739.92 201.97 739.96 C 208.32 739.93 213.58 735.67 217.54 731.09 C 217.51 730.73 217.45 730.02 217.42 729.66 L 218.38 729.61 C 219.28 727.63 220.20 725.66 221.19 723.74 C 222.78 718.29 223.87 712.69 224.40 707.04 C 226.35 690.41 226.89 673.58 225.62 656.89 C 225.92 656.47 226.52 655.64 226.82 655.23 C 226.47 655.38 225.76 655.69 225.41 655.84 C 224.95 650.51 223.87 645.18 221.36 640.41 C 217.18 634.23 211.91 628.53 205.29 624.97 C 206.64 621.49 208.26 618.14 209.79 614.74 C 210.83 612.52 211.85 610.30 212.82 608.05 C 219.29 605.69 225.66 603.05 232.14 600.69 C 219.66 600.40 207.17 600.71 194.69 600.52 Z" />
<path fill="#ffffff" opacity="1.00" d=" M 83.57 638.58 C 87.52 638.08 91.51 638.75 94.39 641.82 L 94.15 639.20 C 94.45 640.36 94.74 641.53 95.01 642.71 C 95.71 644.10 96.44 645.50 97.20 646.87 C 98.99 651.50 100.47 656.30 100.81 661.28 C 103.15 675.49 101.58 690.05 98.19 703.96 C 97.29 706.67 96.34 709.36 95.39 712.06 C 94.28 714.57 92.62 716.73 91.15 719.03 C 87.52 721.53 82.79 720.36 79.98 717.17 C 74.75 708.75 73.88 698.65 73.27 689.00 C 73.22 675.83 72.63 662.32 76.61 649.59 C 77.99 645.69 79.53 641.26 83.45 639.24 L 83.57 638.58 Z" />
<path fill="#ffffff" opacity="1.00" d=" M 198.04 642.99 C 200.93 640.76 204.87 641.48 208.07 642.57 C 211.64 645.90 213.87 650.22 215.19 654.88 C 218.96 669.96 217.47 685.66 216.05 700.94 C 215.29 706.63 214.56 712.37 212.90 717.88 C 211.66 722.72 209.28 727.35 205.36 730.56 C 202.00 731.01 198.60 730.80 195.43 729.57 L 195.45 728.85 C 194.75 728.11 193.96 727.49 193.09 727.00 C 192.34 725.69 191.54 724.43 190.64 723.24 C 187.91 717.13 186.21 710.62 185.29 704.00 C 183.38 689.77 184.09 675.17 187.72 661.26 C 189.67 654.54 192.17 647.31 198.04 642.99 Z" />
</g>
<g id="#006db3ff">
<path fill="#006db3" opacity="1.00" d=" M 555.18 23.42 C 566.24 28.63 578.89 28.84 590.66 26.17 C 592.43 26.45 594.15 27.02 595.90 27.46 C 594.07 36.21 592.32 44.98 591.08 53.83 C 604.08 54.02 617.28 53.28 629.87 49.86 C 627.50 54.97 624.56 60.31 625.29 66.15 C 626.04 71.19 628.33 75.81 629.86 80.62 C 625.72 78.82 621.58 76.81 617.07 76.18 C 607.89 74.81 598.62 74.19 589.36 73.69 C 587.92 83.79 588.67 94.00 589.51 104.11 C 591.55 124.21 597.63 143.91 607.52 161.55 C 622.11 188.02 643.62 209.90 666.53 229.30 C 699.01 256.64 734.77 279.72 770.80 302.05 C 803.23 321.91 836.39 340.59 870.26 357.87 C 889.39 367.75 908.75 377.17 928.05 386.71 C 928.90 387.93 929.04 389.48 929.49 390.89 C 910.05 386.80 891.30 380.07 872.56 373.59 C 818.32 353.34 765.33 329.50 714.95 300.92 C 697.56 291.02 680.90 279.92 664.26 268.81 C 631.62 246.51 600.00 222.75 569.45 197.66 C 565.54 194.63 562.05 191.08 557.99 188.27 C 554.59 189.79 552.66 193.43 549.90 195.84 C 495.13 250.06 433.19 296.96 366.54 335.62 C 345.59 347.72 323.98 358.60 302.37 369.47 C 254.88 393.35 206.66 415.87 157.14 435.26 C 109.40 453.71 60.39 469.55 9.93 478.57 L 10.13 478.46 C 15.58 475.42 21.56 473.54 27.21 470.94 C 82.66 447.51 137.11 421.68 190.20 393.29 C 240.19 366.68 288.95 337.70 335.78 305.83 C 376.55 278.37 416.45 249.54 454.49 218.39 C 476.51 199.91 498.31 180.99 517.22 159.28 C 527.75 147.67 536.08 134.30 543.69 120.67 C 548.31 111.72 553.09 102.69 555.35 92.81 C 556.68 86.48 558.04 80.08 557.79 73.57 C 544.65 74.42 530.75 73.74 518.73 80.05 C 521.05 75.26 523.75 70.44 524.25 65.05 C 524.38 59.03 522.11 53.34 520.50 47.64 C 524.73 49.75 529.21 51.53 533.97 51.96 C 542.22 52.72 550.44 54.07 558.76 53.90 C 558.71 43.64 557.10 33.48 555.18 23.42 Z" />
</g>
<g id="#ffa400ff">
<path fill="#ffa400" opacity="1.00" d=" M 511.48 304.54 C 522.41 302.94 533.58 302.91 544.51 304.55 L 544.47 305.33 C 547.29 305.85 550.13 306.31 552.95 306.88 C 553.64 308.62 555.60 308.43 557.15 308.78 C 557.32 309.16 557.66 309.92 557.83 310.31 C 558.50 310.32 559.84 310.36 560.51 310.38 L 560.57 311.26 C 565.15 313.22 569.32 316.17 573.33 319.01 C 573.36 319.38 573.43 320.11 573.46 320.47 C 573.85 320.45 574.63 320.42 575.02 320.40 C 577.16 323.72 580.49 325.97 582.86 329.09 C 584.69 331.25 585.97 333.84 587.84 335.96 C 589.13 336.72 589.34 338.19 589.67 339.52 C 589.97 339.99 590.57 340.92 590.88 341.38 C 591.70 343.37 592.28 345.66 594.06 347.05 C 594.44 351.51 596.75 355.49 597.30 359.91 C 598.49 367.17 599.08 374.65 597.87 381.94 C 597.62 384.09 597.45 386.26 597.36 388.43 L 596.66 388.54 C 596.26 390.86 595.75 393.16 595.34 395.48 L 594.77 395.62 C 594.33 399.15 592.13 402.08 591.22 405.47 L 590.19 405.69 C 590.27 406.04 590.44 406.73 590.52 407.08 C 587.75 410.30 585.86 414.14 583.35 417.56 L 582.81 417.72 C 581.58 419.55 579.96 421.13 578.92 423.08 C 577.61 424.09 576.45 425.16 574.99 426.00 C 574.14 427.15 572.81 427.79 572.01 428.98 C 570.01 430.48 567.77 431.56 565.63 432.82 L 565.55 433.63 L 564.23 433.66 C 564.25 434.02 564.29 434.74 564.31 435.10 C 562.38 435.42 560.28 435.55 558.98 437.21 C 558.03 437.64 557.05 438.01 556.06 438.31 C 555.38 438.37 554.02 438.48 553.34 438.53 L 553.73 439.55 C 551.97 439.91 550.22 440.30 548.47 440.65 L 548.51 441.40 C 537.83 443.35 526.67 445.68 515.98 442.81 C 513.13 442.34 510.28 441.92 507.45 441.38 L 507.55 440.46 C 506.89 440.43 505.57 440.37 504.91 440.34 C 503.24 439.58 501.58 438.82 499.91 438.08 C 498.93 437.82 497.96 437.55 497.00 437.30 C 495.81 435.46 493.62 435.41 491.69 435.12 C 491.71 434.75 491.75 434.03 491.77 433.67 L 490.46 433.62 L 490.43 432.63 C 489.23 432.20 488.05 431.76 486.89 431.31 C 486.44 430.00 485.21 429.55 484.08 429.04 C 483.39 428.00 482.30 427.46 481.23 426.95 C 480.28 425.54 479.22 424.21 477.96 423.09 C 475.24 420.68 473.27 417.59 470.66 415.09 C 470.62 414.78 470.54 414.16 470.50 413.86 C 468.89 413.58 468.59 412.14 468.29 410.82 C 465.79 407.07 463.80 403.02 462.11 398.85 C 461.88 397.87 461.57 396.92 461.18 396.00 C 460.54 393.96 459.76 391.96 459.20 389.89 C 458.50 387.62 458.40 385.24 458.19 382.89 C 457.10 377.04 457.21 370.90 458.08 365.02 C 458.25 362.99 458.61 360.99 459.02 358.99 C 459.43 357.31 459.68 355.60 460.22 353.99 C 460.33 353.53 460.55 352.60 460.66 352.13 C 461.39 350.52 461.69 348.79 461.93 347.06 C 463.60 345.96 464.00 343.91 464.75 342.19 C 466.37 339.08 468.16 336.05 470.19 333.19 C 471.23 331.54 471.53 330.12 473.02 328.57 C 473.27 328.53 473.78 328.45 474.03 328.41 C 475.55 326.71 476.77 324.78 478.15 322.98 C 479.43 322.54 480.59 321.93 480.77 320.44 C 481.11 320.40 481.79 320.31 482.13 320.26 C 483.70 317.73 486.70 316.78 488.87 314.87 C 489.89 314.12 490.89 313.34 491.95 312.63 C 493.11 312.17 494.29 311.73 495.48 311.32 L 495.54 310.65 C 497.72 309.85 499.95 309.14 502.01 308.05 C 503.15 307.77 504.29 307.50 505.45 307.24 L 505.47 306.14 C 505.85 306.20 506.60 306.33 506.98 306.39 C 508.19 305.35 509.99 305.70 511.55 305.36 L 511.48 304.54 Z" />
<path fill="#ffa400" opacity="1.00" d=" M 744.96 354.89 C 746.61 353.67 747.70 351.94 748.49 350.06 C 748.41 353.43 748.00 356.78 746.81 359.95 C 745.66 363.31 744.83 366.81 743.14 369.95 C 743.00 371.15 742.49 372.27 742.24 373.45 L 741.19 373.58 C 741.32 374.07 741.57 375.04 741.69 375.52 L 740.70 375.58 C 739.71 378.21 738.67 380.82 737.17 383.21 C 736.77 385.06 735.20 386.30 734.63 388.07 C 734.58 388.31 734.48 388.78 734.42 389.02 C 730.58 395.81 726.08 402.30 723.05 409.49 C 722.75 409.53 722.16 409.60 721.86 409.63 C 721.38 410.90 720.74 412.10 719.94 413.19 C 719.75 413.68 719.38 414.66 719.19 415.15 C 716.79 418.21 715.02 421.68 712.72 424.81 C 712.36 426.13 712.11 427.66 710.44 427.89 C 710.43 428.19 710.41 428.79 710.40 429.09 C 708.92 429.74 708.32 431.21 707.66 432.56 C 705.98 435.53 703.98 438.31 702.20 441.23 C 700.65 443.20 699.38 445.37 698.15 447.56 C 697.35 448.62 696.55 449.68 695.77 450.75 C 695.45 451.99 694.97 453.17 693.99 454.04 C 693.04 454.82 692.56 455.95 692.08 457.04 C 690.83 458.60 689.82 460.32 688.75 462.00 C 687.90 463.33 687.07 464.66 686.22 465.99 C 684.59 468.56 682.93 471.12 681.05 473.51 C 680.67 474.62 680.31 475.74 679.95 476.86 C 678.33 478.20 677.03 479.79 676.18 481.71 C 674.08 485.14 672.30 488.78 669.96 492.05 C 668.86 493.58 667.97 495.25 666.97 496.86 C 666.20 498.02 665.55 499.26 664.84 500.46 C 664.32 501.71 664.07 503.20 662.80 503.95 C 660.22 508.43 657.38 512.84 655.30 517.60 L 654.19 517.63 C 654.32 518.10 654.58 519.05 654.71 519.53 L 653.27 519.55 C 653.29 519.89 653.32 520.58 653.33 520.93 C 652.62 521.95 651.75 522.87 651.17 523.98 C 650.66 524.93 650.31 525.93 650.11 526.98 C 646.77 531.32 644.87 536.64 642.19 541.42 L 641.80 541.66 C 640.63 543.45 640.37 545.64 639.24 547.45 L 638.32 547.61 C 638.41 548.08 638.59 549.00 638.68 549.47 L 637.35 549.66 C 637.43 550.12 637.59 551.03 637.67 551.49 L 636.81 551.64 C 636.04 553.53 635.29 555.42 634.26 557.19 C 632.80 560.50 631.51 563.89 629.60 566.98 C 629.61 567.33 629.64 568.03 629.65 568.38 L 628.73 568.54 C 628.18 570.01 627.68 571.49 627.18 572.99 C 626.50 574.42 625.81 575.85 625.15 577.30 C 623.92 580.21 622.62 583.10 621.22 585.94 C 620.47 587.65 619.77 589.39 619.13 591.16 C 618.34 592.82 617.53 594.47 616.74 596.13 C 616.31 597.54 616.50 599.52 614.66 599.93 C 614.62 600.57 614.54 601.86 614.50 602.50 L 613.16 602.46 C 613.31 602.93 613.60 603.89 613.74 604.36 L 612.85 604.52 C 611.79 606.77 611.19 609.20 610.19 611.48 L 609.75 611.62 C 608.50 615.58 606.72 619.35 605.14 623.19 C 604.48 624.76 603.80 626.32 603.05 627.85 C 600.20 634.03 598.04 640.53 594.87 646.55 C 594.62 647.49 594.39 648.44 594.17 649.39 C 592.75 652.18 591.74 655.16 590.19 657.88 C 589.94 659.10 589.46 660.25 589.24 661.48 L 588.23 661.53 C 588.29 661.92 588.39 662.69 588.45 663.08 C 586.17 667.21 584.63 671.68 582.79 676.01 C 581.25 680.26 579.31 684.36 577.60 688.54 C 576.51 691.44 575.27 694.29 574.21 697.20 C 571.48 702.94 569.60 709.06 566.61 714.67 C 566.53 715.59 566.46 716.53 566.40 717.47 L 565.71 717.56 C 564.23 721.77 562.44 725.85 560.80 730.00 C 558.91 734.65 556.99 739.29 555.22 743.99 C 553.75 747.58 552.37 751.21 550.78 754.75 C 550.11 756.53 549.46 758.32 548.73 760.08 C 547.53 762.49 546.72 765.05 545.86 767.60 C 544.10 771.47 542.36 775.38 541.24 779.50 L 540.72 779.62 C 540.26 781.05 539.73 782.46 539.39 783.93 C 538.97 784.63 538.55 785.33 538.13 786.04 C 537.87 787.18 537.55 788.32 537.19 789.46 L 536.18 789.59 C 536.29 790.06 536.52 791.01 536.64 791.48 L 535.11 791.50 C 535.31 792.03 535.71 793.07 535.91 793.60 L 534.31 793.10 L 534.65 794.69 L 533.19 794.17 C 533.23 795.05 533.30 796.83 533.34 797.71 C 532.72 795.91 532.55 794.00 532.58 792.12 L 531.12 792.68 C 531.40 792.09 531.98 790.91 532.26 790.32 L 530.38 790.70 C 530.48 789.83 530.68 788.10 530.79 787.24 L 529.35 787.65 C 529.47 786.82 529.69 785.16 529.80 784.32 L 528.21 784.54 C 528.41 783.95 528.81 782.77 529.01 782.19 L 527.35 782.72 C 527.46 781.87 527.68 780.16 527.79 779.31 C 527.21 779.36 526.05 779.47 525.47 779.52 C 525.55 778.72 525.72 777.11 525.81 776.31 L 524.33 776.63 L 524.72 774.59 C 524.27 774.86 523.37 775.40 522.91 775.66 C 522.76 772.24 520.82 769.44 518.99 766.71 C 517.49 763.25 515.56 760.01 514.00 756.59 C 511.76 751.62 509.22 746.78 507.30 741.69 L 506.38 741.39 C 506.48 740.93 506.68 740.01 506.77 739.55 L 505.54 739.48 C 505.52 738.79 505.50 737.39 505.48 736.69 C 505.11 736.32 504.36 735.57 503.99 735.20 C 503.45 734.17 503.03 733.10 502.75 732.00 C 502.65 731.65 502.45 730.93 502.36 730.58 C 501.36 728.77 500.42 726.92 499.49 725.10 C 499.53 724.73 499.62 723.98 499.66 723.60 L 498.80 723.49 C 498.25 722.00 497.66 720.54 496.88 719.17 C 494.83 714.74 492.99 710.22 490.83 705.86 C 490.31 704.44 489.77 703.04 489.24 701.65 L 488.80 701.45 C 488.31 700.03 487.65 698.69 486.89 697.42 C 486.42 695.78 486.63 693.62 484.62 693.09 C 484.59 692.43 484.53 691.11 484.50 690.46 L 483.22 690.44 C 483.29 690.07 483.41 689.33 483.47 688.96 C 481.58 685.28 479.67 681.59 478.29 677.68 L 477.77 677.41 C 477.09 675.12 476.41 672.75 474.73 670.97 C 474.66 670.34 474.51 669.08 474.44 668.46 L 473.20 668.34 C 473.35 667.86 473.65 666.90 473.80 666.42 L 472.76 666.45 C 471.83 663.42 470.27 660.64 469.24 657.66 L 468.42 657.50 C 468.44 657.14 468.48 656.43 468.50 656.08 C 467.45 654.52 466.92 652.64 466.14 650.91 C 465.00 648.63 463.71 646.43 462.84 644.04 C 461.80 641.66 460.67 639.26 459.51 637.08 C 459.54 636.71 459.62 635.96 459.66 635.58 L 458.26 635.47 C 458.39 634.99 458.64 634.04 458.76 633.57 L 457.84 633.49 C 456.68 630.24 455.19 627.13 453.72 624.01 C 452.43 621.27 451.28 618.46 450.20 615.63 L 449.79 615.46 C 449.42 614.81 448.70 613.52 448.33 612.87 C 448.88 612.04 449.30 611.17 449.58 610.26 C 448.74 609.87 447.88 609.56 447.00 609.30 C 446.67 608.74 446.02 607.62 445.69 607.06 C 445.64 606.41 445.54 605.10 445.49 604.45 L 444.26 604.37 C 444.37 603.92 444.58 603.01 444.68 602.55 L 443.81 602.37 C 442.29 598.07 439.92 594.15 438.26 589.93 C 437.87 588.92 437.48 587.93 437.11 586.94 C 435.66 585.62 435.09 583.64 434.54 581.85 C 434.56 581.52 434.62 580.86 434.65 580.53 L 433.29 580.39 C 433.42 579.91 433.67 578.96 433.79 578.48 L 432.84 578.38 C 431.84 575.81 430.62 573.27 430.32 570.50 C 430.02 570.46 429.40 570.37 429.10 570.33 C 429.28 569.82 429.65 568.80 429.84 568.29 L 430.96 568.53 C 430.77 568.00 430.39 566.96 430.20 566.43 L 431.91 566.45 C 431.74 565.95 431.39 564.96 431.21 564.46 L 432.01 564.36 C 432.82 563.13 433.33 561.75 433.84 560.39 C 434.15 559.00 434.50 557.62 434.84 556.26 L 435.95 556.53 C 435.77 556.00 435.39 554.95 435.20 554.42 L 436.88 554.48 C 436.72 553.96 436.40 552.92 436.24 552.40 L 437.88 552.48 C 437.72 551.97 437.41 550.95 437.26 550.43 L 438.79 550.37 C 438.67 549.87 438.43 548.89 438.31 548.39 L 439.86 548.35 C 439.70 547.88 439.38 546.94 439.22 546.47 L 440.57 546.45 C 440.54 545.72 440.47 544.25 440.44 543.52 C 440.91 543.51 441.84 543.50 442.31 543.49 C 442.32 542.14 442.33 540.79 442.35 539.45 C 442.66 539.49 443.26 539.55 443.56 539.59 C 443.53 538.79 443.46 537.20 443.42 536.40 L 444.51 536.41 C 444.54 535.87 444.62 534.79 444.65 534.24 C 444.93 532.89 445.34 531.57 445.88 530.30 L 446.26 530.62 C 446.71 529.11 447.20 527.62 447.66 526.12 C 448.96 522.99 449.89 519.71 450.76 516.44 L 451.56 516.42 C 451.52 515.07 451.49 513.72 451.46 512.37 L 452.57 512.42 C 452.53 511.07 452.49 509.72 452.46 508.38 L 453.34 508.43 C 453.61 505.45 454.11 502.50 454.57 499.55 L 453.66 499.64 C 453.49 498.49 453.17 496.20 453.00 495.05 C 452.83 496.24 452.48 498.61 452.30 499.80 C 451.93 499.73 451.19 499.58 450.82 499.50 C 450.36 500.90 449.87 502.29 449.41 503.68 L 448.15 503.64 C 448.30 504.12 448.60 505.08 448.75 505.57 L 447.24 505.62 C 447.34 506.14 447.55 507.18 447.66 507.70 C 447.05 507.66 445.84 507.57 445.24 507.53 C 445.35 508.07 445.56 509.13 445.67 509.67 L 444.11 509.50 C 444.27 510.01 444.58 511.04 444.74 511.56 C 444.31 511.60 443.46 511.68 443.04 511.72 C 441.82 513.73 440.51 515.67 439.29 517.67 L 438.22 517.63 C 438.31 518.01 438.49 518.75 438.58 519.12 C 437.29 519.50 436.48 520.34 436.15 521.63 L 435.18 521.63 C 435.27 521.97 435.44 522.65 435.53 522.99 C 433.11 524.58 431.73 527.22 429.41 528.92 L 429.86 529.76 L 428.20 529.56 C 428.32 530.08 428.56 531.12 428.68 531.64 C 428.11 531.63 426.95 531.62 426.38 531.61 C 426.39 531.98 426.42 532.70 426.44 533.07 C 424.86 534.25 423.45 535.62 422.04 536.99 C 421.07 537.43 420.28 538.10 419.68 539.00 C 419.58 539.62 419.37 540.85 419.26 541.47 C 418.22 541.48 417.19 541.51 416.16 541.54 C 414.82 541.60 414.22 540.85 414.36 539.29 C 414.01 539.28 413.33 539.26 412.98 539.25 C 412.57 537.50 412.64 535.54 411.78 534.01 C 410.90 532.22 409.85 530.51 409.20 528.63 C 408.89 528.24 408.28 527.45 407.97 527.06 C 407.63 526.01 407.18 525.03 406.82 524.01 C 406.37 522.79 405.85 521.59 405.35 520.40 L 404.79 520.24 C 404.30 518.92 403.69 517.66 402.97 516.46 C 402.37 515.21 401.81 513.94 401.31 512.66 C 400.58 511.13 399.84 509.62 399.16 508.08 C 398.12 506.08 397.09 504.08 396.13 502.06 C 395.17 500.03 394.19 498.02 393.32 495.97 C 392.21 493.92 391.31 491.77 390.33 489.67 L 389.54 489.39 C 389.52 489.06 389.48 488.38 389.46 488.04 C 387.95 485.04 386.92 481.73 384.98 478.93 C 383.66 475.06 381.38 471.60 379.96 467.77 C 379.34 466.09 378.16 464.71 377.49 463.07 C 377.55 462.70 377.65 461.98 377.70 461.61 L 376.62 461.53 C 376.22 460.21 375.80 458.91 375.41 457.60 L 374.34 457.53 C 374.46 457.09 374.68 456.20 374.80 455.76 L 373.42 455.44 C 373.51 454.98 373.69 454.05 373.79 453.59 L 372.81 453.42 C 372.00 450.88 371.03 448.40 369.76 446.07 C 368.03 441.83 365.62 437.90 364.23 433.53 L 363.38 433.56 C 363.41 433.22 363.47 432.53 363.50 432.19 C 363.21 431.53 362.62 430.21 362.33 429.55 L 361.58 429.48 C 361.52 428.86 361.41 427.60 361.35 426.97 C 360.39 425.56 359.66 424.02 359.26 422.37 L 358.75 422.44 C 358.09 419.80 356.90 417.38 355.54 415.08 C 355.57 414.72 355.62 414.00 355.65 413.65 L 354.70 413.43 C 354.25 411.79 353.75 410.16 353.30 408.53 L 352.62 408.33 C 352.04 406.40 351.72 404.17 349.98 402.90 C 349.72 401.56 349.28 400.29 348.90 399.00 C 348.37 397.43 348.03 395.80 347.64 394.21 L 346.21 394.33 C 346.88 394.04 347.55 393.75 348.23 393.46 C 348.29 393.84 348.40 394.60 348.45 394.98 C 348.94 394.86 349.92 394.63 350.41 394.51 C 350.32 395.02 350.12 396.04 350.03 396.55 L 351.21 396.37 C 351.53 397.61 352.31 398.39 353.54 398.71 L 353.42 399.38 C 355.07 400.23 356.66 401.21 358.30 402.11 C 358.33 402.39 358.38 402.96 358.41 403.25 C 359.65 404.11 360.94 404.93 362.11 405.90 C 362.56 407.75 365.18 406.07 364.75 408.20 C 365.04 408.38 365.64 408.75 365.93 408.94 C 367.68 410.80 370.48 411.18 372.23 413.05 C 372.28 413.43 372.40 414.20 372.46 414.58 C 372.88 414.55 373.72 414.49 374.14 414.45 C 374.15 416.53 376.50 416.26 377.80 417.00 C 379.18 418.35 381.02 419.20 382.11 420.86 C 383.17 421.41 384.08 422.19 385.01 422.95 C 387.71 424.14 390.28 425.61 392.80 427.10 C 394.02 428.74 395.57 430.00 397.51 430.70 L 397.57 431.24 C 400.16 432.10 402.12 434.24 404.85 434.76 C 405.80 434.93 406.42 435.52 406.69 436.55 C 407.03 436.57 407.71 436.62 408.05 436.64 C 408.31 438.69 410.50 438.35 411.98 438.84 C 412.42 440.17 413.72 440.48 414.93 440.89 C 416.85 442.88 419.79 443.24 421.94 444.92 C 422.59 446.06 423.86 446.40 425.00 446.87 C 428.08 448.58 431.11 450.59 434.70 451.01 C 436.26 452.81 438.16 454.17 440.54 454.67 L 440.45 455.49 C 441.25 455.57 442.84 455.73 443.64 455.81 C 443.60 456.20 443.52 456.97 443.48 457.36 C 444.72 457.46 445.96 457.58 447.21 457.70 C 447.45 458.08 447.94 458.83 448.19 459.21 C 449.97 459.64 451.75 460.10 453.54 460.54 L 453.53 461.49 C 454.88 461.83 456.24 462.20 457.61 462.55 L 457.44 463.34 C 460.99 463.80 464.09 465.68 467.46 466.75 L 467.53 467.36 C 469.18 467.71 470.83 468.10 472.48 468.46 L 472.46 469.41 C 474.77 469.94 477.10 470.41 479.45 470.76 C 479.44 471.10 479.42 471.79 479.41 472.13 C 480.76 472.24 482.12 472.35 483.49 472.47 L 483.53 473.29 C 485.41 473.64 487.26 474.12 489.07 474.74 C 491.30 475.70 493.66 476.22 496.04 476.71 C 498.17 477.55 500.39 478.15 502.67 478.50 L 502.52 479.33 C 506.36 479.50 510.23 479.92 513.89 481.17 C 524.51 482.89 535.27 484.04 546.04 483.23 C 550.08 482.10 554.32 481.65 558.52 481.29 L 558.25 480.41 C 560.21 480.14 562.15 479.69 563.98 478.88 C 566.74 478.01 569.62 477.43 572.22 476.11 C 573.21 474.32 575.46 474.78 577.12 474.22 C 580.63 473.79 582.78 470.51 586.37 470.25 C 587.43 467.25 592.14 469.94 592.98 466.74 C 593.55 466.65 594.70 466.47 595.28 466.38 C 595.84 464.56 597.82 464.66 599.27 464.10 C 600.11 462.68 601.76 462.65 603.17 462.22 C 604.24 459.62 608.19 461.46 609.00 458.70 C 609.34 458.64 610.02 458.54 610.36 458.48 C 610.92 455.89 614.50 457.28 615.23 454.81 C 616.37 454.65 617.52 454.50 618.68 454.37 C 618.67 453.94 618.64 453.09 618.63 452.67 C 619.07 452.65 619.96 452.61 620.40 452.59 C 621.22 449.62 625.25 450.99 627.06 448.85 C 628.08 448.25 629.43 447.98 629.92 446.74 C 631.04 446.30 632.38 446.14 632.99 444.91 C 634.10 444.36 635.33 443.92 636.07 442.84 C 637.11 442.32 638.16 441.82 639.23 441.33 C 641.16 439.91 643.14 438.54 645.18 437.26 C 647.20 435.96 649.21 434.63 651.16 433.22 C 652.32 432.60 653.40 431.84 654.59 431.24 L 654.37 430.34 C 654.77 430.32 655.55 430.28 655.94 430.26 C 657.31 428.25 659.66 427.33 661.69 426.15 C 661.70 425.85 661.72 425.25 661.73 424.95 C 663.02 424.53 664.45 424.25 665.14 422.94 C 666.52 422.43 667.80 421.71 668.98 420.83 C 670.80 419.58 672.42 418.09 674.02 416.57 C 674.43 416.52 675.24 416.42 675.65 416.36 C 675.67 415.98 675.71 415.23 675.73 414.85 C 676.96 414.51 678.33 414.29 679.09 413.12 C 679.71 411.15 681.77 411.27 683.04 409.96 C 684.46 409.06 685.58 407.73 687.16 407.07 C 688.00 406.22 688.92 405.41 690.01 404.87 C 692.57 402.40 695.94 400.80 697.99 397.80 C 698.56 397.67 699.69 397.42 700.26 397.30 C 700.41 396.73 700.70 395.60 700.85 395.03 C 703.23 394.52 704.61 392.56 706.13 390.88 C 707.39 390.52 708.65 390.05 708.99 388.61 C 709.29 388.55 709.90 388.44 710.21 388.38 C 710.88 386.65 712.85 386.22 713.98 384.89 C 716.52 382.10 720.02 380.33 722.13 377.11 C 722.91 375.21 724.75 375.42 725.94 373.98 C 727.94 372.50 729.54 370.60 731.06 368.65 C 731.44 368.58 732.21 368.45 732.60 368.38 C 732.58 367.92 732.56 366.99 732.54 366.53 C 733.04 366.51 734.04 366.47 734.55 366.45 C 734.57 366.08 734.63 365.35 734.66 364.99 C 738.55 362.13 741.58 358.31 744.96 354.89 Z" />
</g>
<g id="#4ac734ff">
<path fill="#4ac734" opacity="1.00" d=" M 866.00 401.93 C 868.56 419.14 869.01 436.62 867.53 453.95 C 866.24 468.37 865.02 482.86 862.08 497.06 C 857.59 530.53 847.30 562.85 840.96 595.96 C 838.93 605.81 837.22 615.72 835.32 625.60 C 834.48 630.50 833.13 635.34 833.11 640.35 C 832.93 640.30 832.56 640.19 832.38 640.13 C 831.53 646.75 830.10 653.28 828.81 659.82 C 824.68 681.58 820.41 703.34 814.81 724.77 C 814.48 725.82 814.17 726.88 813.86 727.95 C 812.07 735.47 809.67 742.91 806.58 750.00 C 806.53 750.25 806.42 750.76 806.36 751.01 C 806.02 751.71 805.34 753.12 805.00 753.82 C 804.67 752.89 804.31 751.96 803.98 751.07 C 802.90 749.12 801.86 747.17 800.84 745.22 C 799.95 743.44 799.06 741.68 798.18 739.92 C 795.09 734.30 792.25 728.55 789.17 722.93 C 784.96 715.69 781.16 708.23 776.86 701.05 C 776.34 699.86 775.90 698.59 774.72 697.92 C 774.60 697.48 774.37 696.61 774.25 696.18 C 769.78 689.55 766.13 682.29 761.84 675.50 C 752.96 660.29 743.84 645.23 735.06 629.98 C 729.43 619.99 724.08 609.60 717.84 599.87 C 713.42 593.00 708.65 586.38 703.92 579.73 C 703.43 579.54 702.44 579.17 701.95 578.99 C 701.85 578.42 701.64 577.28 701.54 576.71 C 693.68 567.84 686.20 558.58 677.10 550.93 C 672.41 546.52 667.78 541.75 662.12 538.53 C 682.73 539.23 703.48 538.92 723.78 534.91 C 732.97 533.58 741.96 531.27 750.97 529.08 C 755.28 527.67 759.71 526.64 764.00 525.13 C 766.13 524.47 768.25 523.73 770.48 523.40 L 770.52 522.76 C 773.89 521.82 777.14 520.52 780.44 519.33 L 780.54 518.72 C 782.07 518.28 783.59 517.81 785.12 517.31 C 786.47 516.42 787.93 515.74 789.49 515.27 L 789.58 514.75 C 798.84 510.56 806.62 503.84 814.25 497.24 C 816.61 495.24 818.76 493.01 820.89 490.77 C 821.23 490.45 821.91 489.82 822.25 489.50 C 823.72 487.47 825.25 485.44 827.25 483.88 C 827.33 483.64 827.49 483.15 827.58 482.90 C 832.17 478.21 835.33 472.35 839.25 467.12 C 839.64 465.95 840.14 464.81 841.03 463.93 C 843.18 460.68 845.22 457.32 847.02 453.86 C 848.12 451.86 848.23 449.12 850.41 447.92 C 850.44 447.32 850.50 446.14 850.53 445.55 L 851.76 445.52 C 851.68 445.12 851.52 444.34 851.44 443.94 C 852.60 442.49 853.14 440.62 854.20 439.06 C 854.35 438.51 854.67 437.42 854.83 436.87 C 856.49 433.65 857.58 430.20 858.81 426.80 C 861.56 418.63 864.19 410.37 866.00 401.93 Z" />
<path fill="#4ac734" opacity="1.00" d=" M 745.09 410.40 C 750.60 407.53 756.98 408.35 762.98 408.02 C 768.00 407.58 772.77 409.65 777.50 411.06 C 781.99 413.05 786.60 415.31 790.02 418.93 C 791.05 419.56 791.98 420.33 792.98 421.03 C 796.05 424.58 799.11 428.24 801.33 432.44 C 801.96 433.90 802.63 435.33 803.31 436.78 C 810.09 453.28 806.06 473.16 793.87 486.07 C 787.46 492.19 779.51 497.58 770.53 498.70 L 770.48 499.42 C 763.67 500.07 756.68 500.95 750.00 498.96 C 747.98 498.41 745.96 497.87 743.95 497.35 C 738.75 495.34 734.33 492.03 729.70 489.04 C 729.62 488.82 729.47 488.37 729.39 488.15 C 726.02 485.55 723.36 482.17 721.25 478.50 L 720.74 478.34 C 719.93 476.49 719.08 474.66 718.14 472.88 C 712.77 461.30 712.82 447.59 717.74 435.86 C 721.66 427.70 727.40 420.00 735.17 415.18 C 738.25 413.12 741.67 411.75 745.09 410.40 Z" />
</g>
<g id="#00c2f2ff">
<path fill="#00c2f2" opacity="1.00" d=" M 307.93 481.10 C 311.18 479.89 314.46 478.71 317.85 477.98 C 326.69 477.35 335.88 477.15 344.06 481.10 C 345.36 481.79 346.63 482.56 347.98 483.17 C 353.58 486.05 358.29 490.53 361.93 495.63 C 362.23 495.91 362.84 496.47 363.14 496.76 C 367.10 503.82 369.79 511.81 369.38 520.00 C 369.13 525.89 367.30 531.58 365.01 536.97 C 360.92 543.40 355.86 549.28 349.33 553.34 C 344.25 556.18 338.69 557.90 333.06 559.23 C 328.69 559.73 324.28 559.72 319.90 559.34 C 313.84 558.25 308.04 556.31 302.61 553.40 C 301.51 552.43 300.33 551.57 299.10 550.81 C 297.00 548.96 294.83 547.20 292.87 545.22 C 285.13 536.21 281.02 523.93 283.08 512.11 C 285.23 498.35 295.32 486.62 307.93 481.10 Z" />
<path fill="#00c2f2" opacity="1.00" d=" M 452.30 499.80 C 452.48 498.61 452.83 496.24 453.00 495.05 C 453.17 496.20 453.49 498.49 453.66 499.64 L 454.57 499.55 C 454.11 502.50 453.61 505.45 453.34 508.43 L 452.46 508.38 C 452.49 509.72 452.53 511.07 452.57 512.42 L 451.46 512.37 C 451.49 513.72 451.52 515.07 451.56 516.42 L 450.76 516.44 C 449.89 519.71 448.96 522.99 447.66 526.12 C 447.20 527.62 446.71 529.11 446.26 530.62 L 445.88 530.30 C 445.34 531.57 444.93 532.89 444.65 534.24 C 444.62 534.79 444.54 535.87 444.51 536.41 L 443.42 536.40 C 443.46 537.20 443.53 538.79 443.56 539.59 C 443.26 539.55 442.66 539.49 442.35 539.45 C 442.33 540.79 442.32 542.14 442.31 543.49 C 441.84 543.50 440.91 543.51 440.44 543.52 C 440.47 544.25 440.54 545.72 440.57 546.45 L 439.22 546.47 C 439.38 546.94 439.70 547.88 439.86 548.35 L 438.31 548.39 C 438.43 548.89 438.67 549.87 438.79 550.37 L 437.26 550.43 C 437.41 550.95 437.72 551.97 437.88 552.48 L 436.24 552.40 C 436.40 552.92 436.72 553.96 436.88 554.48 L 435.20 554.42 C 435.39 554.95 435.77 556.00 435.95 556.53 L 434.84 556.26 C 434.50 557.62 434.15 559.00 433.84 560.39 C 433.33 561.75 432.82 563.13 432.01 564.36 L 431.21 564.46 C 431.39 564.96 431.74 565.95 431.91 566.45 L 430.20 566.43 C 430.39 566.96 430.77 568.00 430.96 568.53 L 429.84 568.29 C 429.65 568.80 429.28 569.82 429.10 570.33 C 427.21 575.71 424.51 580.75 422.14 585.92 C 416.73 598.55 410.27 610.70 405.06 623.41 C 399.36 635.86 395.05 648.89 391.03 661.97 C 387.17 674.07 384.06 686.39 380.72 698.64 C 378.13 709.08 375.32 719.47 372.72 729.92 C 369.43 741.98 366.63 754.30 361.24 765.66 C 360.85 765.68 360.09 765.73 359.70 765.75 C 357.84 761.73 356.56 757.47 354.72 753.46 C 348.35 739.51 339.83 726.62 330.24 714.69 C 328.88 712.89 327.40 711.19 325.96 709.47 C 321.84 704.46 317.52 699.61 313.15 694.82 C 310.85 692.08 308.51 689.39 306.12 686.74 C 305.82 686.43 305.23 685.81 304.93 685.50 C 299.74 679.45 294.50 673.39 290.09 666.73 C 289.76 666.46 289.11 665.90 288.78 665.63 C 283.21 657.04 276.80 649.03 271.38 640.35 C 271.06 640.06 270.42 639.48 270.10 639.19 C 262.04 626.18 252.74 613.93 245.16 600.61 C 239.32 592.50 234.93 583.47 229.61 575.02 C 229.51 573.99 229.42 572.98 229.34 571.97 C 230.13 572.54 231.01 572.93 231.98 573.12 C 234.00 573.64 236.02 574.20 238.02 574.80 C 240.48 576.17 243.51 575.84 245.92 577.34 C 247.95 577.81 250.00 578.23 252.01 578.78 C 254.87 579.95 257.98 580.18 260.99 580.81 C 269.44 583.15 278.20 584.13 286.94 584.84 C 290.77 586.24 294.95 585.57 298.96 585.80 C 308.32 585.63 317.80 586.50 327.03 584.53 C 336.49 583.61 345.87 581.59 354.90 578.68 C 356.93 578.17 358.97 577.65 360.90 576.85 C 364.33 575.87 367.71 574.68 370.90 573.09 C 380.60 568.81 389.53 563.02 398.40 557.27 L 398.48 556.79 C 399.71 555.97 400.96 555.18 402.15 554.29 C 403.45 553.25 404.76 552.22 406.06 551.18 C 409.23 548.72 412.11 545.89 415.26 543.40 C 415.49 542.93 415.94 542.01 416.16 541.54 C 417.19 541.51 418.22 541.48 419.26 541.47 C 419.37 540.85 419.58 539.62 419.68 539.00 C 420.28 538.10 421.07 537.43 422.04 536.99 C 423.45 535.62 424.86 534.25 426.44 533.07 C 426.42 532.70 426.39 531.98 426.38 531.61 C 426.95 531.62 428.11 531.63 428.68 531.64 C 428.56 531.12 428.32 530.08 428.20 529.56 L 429.86 529.76 L 429.41 528.92 C 431.73 527.22 433.11 524.58 435.53 522.99 C 435.44 522.65 435.27 521.97 435.18 521.63 L 436.15 521.63 C 436.48 520.34 437.29 519.50 438.58 519.12 C 438.49 518.75 438.31 518.01 438.22 517.63 L 439.29 517.67 C 440.51 515.67 441.82 513.73 443.04 511.72 C 443.46 511.68 444.31 511.60 444.74 511.56 C 444.58 511.04 444.27 510.01 444.11 509.50 L 445.67 509.67 C 445.56 509.13 445.35 508.07 445.24 507.53 C 445.84 507.57 447.05 507.66 447.66 507.70 C 447.55 507.18 447.34 506.14 447.24 505.62 L 448.75 505.57 C 448.60 505.08 448.30 504.12 448.15 503.64 L 449.41 503.68 C 449.87 502.29 450.36 500.90 450.82 499.50 C 451.19 499.58 451.93 499.73 452.30 499.80 Z" />
</g>
<g id="#ff0c1aff">
<path fill="#ff0c1a" opacity="1.00" d=" M 139.85 485.55 C 147.66 482.74 156.62 483.12 164.08 486.81 C 165.64 487.91 167.20 489.01 168.78 490.10 C 176.99 496.60 180.76 507.68 179.07 517.92 C 178.48 519.71 177.90 521.52 177.37 523.34 C 175.42 527.75 172.47 531.64 168.94 534.91 C 165.18 537.40 161.21 539.90 156.64 540.52 C 150.98 541.00 145.14 541.68 139.80 539.29 C 137.12 538.06 134.62 536.50 132.22 534.81 C 129.16 532.07 126.67 528.80 124.60 525.27 C 121.23 517.96 120.91 509.46 123.66 501.90 C 125.15 498.78 126.88 495.78 129.07 493.10 C 132.28 490.08 135.81 487.38 139.85 485.55 Z" />
<path fill="#ff0c1a" opacity="1.00" d=" M 87.94 489.92 C 88.19 489.72 88.68 489.33 88.92 489.14 C 92.19 500.08 96.61 510.70 102.16 520.68 C 117.43 548.03 148.60 566.06 180.04 564.32 C 201.91 563.66 222.86 556.61 243.78 550.89 C 220.48 563.90 198.10 579.38 180.45 599.59 C 170.36 610.83 162.11 623.63 155.74 637.31 C 146.41 656.81 138.30 677.52 137.04 699.33 C 134.62 695.59 131.98 692.00 129.34 688.42 C 123.34 688.45 117.34 688.50 111.34 688.37 C 109.98 698.11 108.68 708.20 103.79 716.91 C 100.26 723.28 93.06 727.70 85.65 726.77 C 85.69 727.27 85.78 728.27 85.82 728.77 C 77.59 715.16 68.62 701.83 62.10 687.30 C 61.22 672.50 62.09 657.23 67.61 643.31 C 69.76 638.13 72.97 633.05 77.88 630.11 C 81.62 627.69 86.40 628.00 90.58 628.81 C 96.01 630.54 101.57 633.47 104.38 638.67 C 108.94 646.99 109.98 656.59 111.22 665.85 C 113.15 665.81 115.08 665.78 117.02 665.74 C 109.38 643.74 101.53 621.79 94.94 599.44 C 94.87 600.30 94.81 601.16 94.75 602.03 C 94.62 599.97 94.48 597.89 93.88 595.91 C 90.88 585.39 87.37 574.92 86.11 564.01 C 85.50 559.02 84.91 554.03 84.54 549.02 C 83.69 529.28 83.87 509.34 87.94 489.92 M 83.57 638.58 L 83.45 639.24 C 79.53 641.26 77.99 645.69 76.61 649.59 C 72.63 662.32 73.22 675.83 73.27 689.00 C 73.88 698.65 74.75 708.75 79.98 717.17 C 82.79 720.36 87.52 721.53 91.15 719.03 C 92.62 716.73 94.28 714.57 95.39 712.06 C 96.34 709.36 97.29 706.67 98.19 703.96 C 101.58 690.05 103.15 675.49 100.81 661.28 C 100.47 656.30 98.99 651.50 97.20 646.87 C 96.44 645.50 95.71 644.10 95.01 642.71 C 94.74 641.53 94.45 640.36 94.15 639.20 L 94.39 641.82 C 91.51 638.75 87.52 638.08 83.57 638.58 Z" />
<path fill="#ff0c1a" opacity="1.00" d=" M 194.69 600.52 C 207.17 600.71 219.66 600.40 232.14 600.69 C 225.66 603.05 219.29 605.69 212.82 608.05 C 211.85 610.30 210.83 612.52 209.79 614.74 C 208.26 618.14 206.64 621.49 205.29 624.97 C 211.91 628.53 217.18 634.23 221.36 640.41 C 223.87 645.18 224.95 650.51 225.41 655.84 C 225.76 655.69 226.47 655.38 226.82 655.23 C 226.52 655.64 225.92 656.47 225.62 656.89 C 226.89 673.58 226.35 690.41 224.40 707.04 C 223.87 712.69 222.78 718.29 221.19 723.74 C 220.20 725.66 219.28 727.63 218.38 729.61 L 217.42 729.66 C 217.45 730.02 217.51 730.73 217.54 731.09 C 213.58 735.67 208.32 739.93 201.97 739.96 C 193.26 739.92 185.28 734.29 181.11 726.84 C 180.50 725.50 179.89 724.15 179.11 722.91 C 177.47 717.76 176.66 712.42 175.98 707.08 C 175.24 700.86 173.97 694.70 173.47 688.45 C 167.41 688.45 161.36 688.42 155.30 688.47 C 155.58 683.98 156.28 679.54 157.12 675.13 C 158.93 664.48 161.82 653.94 166.18 644.04 C 167.06 641.98 168.10 639.99 169.10 637.99 C 172.75 631.45 176.65 625.06 180.79 618.83 C 185.25 612.60 189.62 606.27 194.69 600.52 M 198.04 642.99 C 192.17 647.31 189.67 654.54 187.72 661.26 C 184.09 675.17 183.38 689.77 185.29 704.00 C 186.21 710.62 187.91 717.13 190.64 723.24 C 191.54 724.43 192.34 725.69 193.09 727.00 C 193.96 727.49 194.75 728.11 195.45 728.85 L 195.43 729.57 C 198.60 730.80 202.00 731.01 205.36 730.56 C 209.28 727.35 211.66 722.72 212.90 717.88 C 214.56 712.37 215.29 706.63 216.05 700.94 C 217.47 685.66 218.96 669.96 215.19 654.88 C 213.87 650.22 211.64 645.90 208.07 642.57 C 204.87 641.48 200.93 640.76 198.04 642.99 Z" />
</g>
</svg>
